<svg width="105" height="24" viewBox="0 0 105 24" fill="none" xmlns="http://www.w3.org/2000/svg">
<g id="logo 1" clip-path="url(#clip0_400_232)">
<g id="Group">
<g id="Group_2">
<path id="Vector" d="M20.4846 8.54329H17.5204C17.5204 5.59547 15.0829 3.19463 12.0858 3.19463C9.08875 3.19463 6.65026 5.59352 6.65026 8.54329H3.68604C3.68604 3.98677 7.4528 0.279053 12.0838 0.279053C16.7139 0.279053 20.4846 3.98677 20.4846 8.54329ZM12.0858 13.8929C15.0809 13.8929 17.5204 11.494 17.5204 8.54329H6.65225C6.65225 11.4931 9.08974 13.8929 12.0858 13.8929Z" fill="#2F353D"/>
<path id="Vector_2" d="M20.4851 8.54524C20.4851 13.1027 16.7184 16.8124 12.0883 16.8124C7.4583 16.8124 3.69054 13.1037 3.69054 8.54524C1.20824 8.54524 -0.515333 10.9773 0.340976 13.2688L3.1658 20.8307C3.41645 21.5047 3.87221 22.0868 4.47133 22.4983C5.07046 22.9097 5.78401 23.1306 6.51536 23.131H17.6623C19.1599 23.131 20.4951 22.2128 21.0129 20.8307L23.8367 13.2688C24.691 10.9773 22.9674 8.54524 20.4851 8.54524Z" fill="#2F353D"/>
</g>
<path id="Vector_3" d="M34.6156 20.1538H41.8235V23.131H30.2554V21.028L37.1965 11.5116H30.5521V8.53254H41.5278V10.6355L34.6156 20.1538ZM46.0782 17.1767C46.5521 19.3939 48.3613 20.6198 50.8247 20.6198C52.5164 20.6198 53.7909 20.0064 54.6502 18.8098L57.2898 20.3277C55.8361 22.459 53.6704 23.5099 50.7928 23.5099C48.3892 23.5099 46.4316 22.7803 44.948 21.3494C43.4654 19.8901 42.7236 18.0509 42.7236 15.8327C42.7236 13.6429 43.4654 11.833 44.9192 10.3727C46.3729 8.88417 48.2707 8.15454 50.5549 8.15454C52.7205 8.15454 54.5009 8.91347 55.8959 10.402C57.2898 11.8906 58.0018 13.7298 58.0018 15.862C58.0018 16.1824 57.9719 16.62 57.8843 17.1758H46.0782V17.1767ZM54.7707 14.6069C54.3256 12.2432 52.6339 11.0154 50.529 11.0154C48.1572 11.0154 46.4944 12.3887 46.0503 14.6069H54.7707ZM73.725 14.1684V23.131H70.5208V14.4887C70.5208 12.2989 69.2463 11.1033 67.1981 11.1033C64.9439 11.1033 63.4314 12.4757 63.4314 15.3072V23.131H60.2272V8.53254H63.4314V10.4011C64.4111 8.91249 65.9236 8.15356 68.0286 8.15356C71.4408 8.15356 73.724 10.4294 73.724 14.1664L73.725 14.1684ZM89.965 10.3727C91.4187 11.8613 92.1307 13.6722 92.1307 15.8327C92.1307 17.964 91.4177 19.8032 89.965 21.2918C88.5113 22.7803 86.7897 23.5099 84.7445 23.5099C82.4902 23.5099 80.7686 22.6934 79.5529 21.029V23.131H76.3487V2.69552H79.5529V10.6071C80.7686 8.97305 82.4902 8.15454 84.7445 8.15454C86.7917 8.15454 88.5113 8.88417 89.965 10.3727ZM84.2397 20.5035C85.5759 20.5035 86.7031 20.0659 87.5922 19.1888C88.4814 18.2834 88.9275 17.1767 88.9275 15.8327C88.9275 14.4887 88.4834 13.3791 87.5932 12.505C86.7031 11.5985 85.5759 11.161 84.2407 11.161C82.9044 11.161 81.7773 11.5985 80.8891 12.505C80 13.3791 79.5529 14.4887 79.5529 15.8327C79.5529 17.1758 79.998 18.2844 80.8891 19.1888C81.7773 20.0659 82.9044 20.5035 84.2407 20.5035H84.2397ZM94.371 5.75956C93.5705 4.94301 93.5705 3.71524 94.371 2.92701C94.5582 2.73336 94.7836 2.57913 95.0336 2.47374C95.2835 2.36835 95.5527 2.31399 95.8247 2.31399C96.0968 2.31399 96.366 2.36835 96.6159 2.47374C96.8659 2.57913 97.0913 2.73336 97.2785 2.92701C98.079 3.71524 98.079 4.94301 97.2486 5.75956C96.4481 6.5478 95.2004 6.5478 94.371 5.75956ZM94.2236 23.131V8.53254H97.4278V23.13H94.2236V23.131ZM100.539 23.131V1.8184H103.744V23.131H100.539Z" fill="#2F353D"/>
</g>
</g>
<defs>
<clipPath id="clip0_400_232">
<rect width="104.549" height="23.4419" fill="white" transform="translate(0 0.279053)"/>
</clipPath>
</defs>
</svg>
