<svg width="48" height="48" viewBox="0 0 48 48" fill="none" xmlns="http://www.w3.org/2000/svg">
<g id="icon / smm">
<g id="Group 371">
<g id="Union">
<path fill-rule="evenodd" clip-rule="evenodd" d="M31.8988 7.71106V12.517C31.8988 14.2302 33.2927 15.6241 35.0058 15.6241H40.0127C41.726 15.6241 43.1197 14.2302 43.1197 12.517V7.10708C43.1198 5.39384 41.726 4 40.0127 4H30.7241C30.3313 4 29.976 4.23253 29.8188 4.59239C29.6615 4.95226 29.7323 5.37098 29.9992 5.65924L31.8988 7.71106ZM40.0127 5.17399C41.0786 5.17399 41.9457 6.04118 41.9457 7.10708V12.517C41.9457 13.5829 41.0786 14.4501 40.0127 14.4501H35.0058C33.94 14.4501 33.0728 13.5829 33.0728 12.517V7.48103C33.0728 7.33319 33.017 7.19075 32.9165 7.08219L31.1497 5.17399H40.0127Z" fill="#0099FA"/>
<path fill-rule="evenodd" clip-rule="evenodd" d="M28.4541 27.1791C28.4541 26.8549 28.7169 26.5921 29.0411 26.5921C29.3653 26.5921 29.6281 26.8549 29.628 27.1791V36.0506C29.628 37.3195 28.5957 38.3519 27.3267 38.3519C26.0935 38.3519 25.0841 37.377 25.028 36.1576L18.5449 30.31L16.8083 30.0708L14.8008 33.3313V40.6188C14.8008 41.6979 13.923 42.5757 12.8439 42.5757H10.6863C9.60729 42.5757 8.72938 41.6979 8.72938 40.6188V34.214C8.72938 33.8898 8.99212 33.627 9.31638 33.627C9.64063 33.627 9.90337 33.8898 9.90337 34.214V40.6187C9.90337 41.0504 10.2545 41.4016 10.6863 41.4016H12.844C13.2757 41.4016 13.6269 41.0504 13.6269 40.6187V33.1649C13.6269 33.0562 13.657 32.9497 13.714 32.8572L15.5375 29.8955L9.90337 29.1192V31.7123C9.90337 32.0365 9.64063 32.2993 9.31638 32.2993C8.99212 32.2993 8.72938 32.0365 8.72938 31.7123V28.9574L6.60947 28.6653C5.12656 28.4611 4.0083 27.1781 4.0083 25.6812V22.3192C4.0083 20.8223 5.12656 19.5394 6.60947 19.3351L18.545 17.6904L25.0427 11.8298C25.1798 10.6909 26.1515 9.80505 27.3268 9.80505C28.5958 9.80505 29.6281 10.8375 29.6281 12.1064V20.8215C29.6281 21.1456 29.3654 21.4084 29.0411 21.4084C28.7169 21.4084 28.4541 21.1456 28.4541 20.8215V12.1064C28.4541 11.4848 27.9484 10.979 27.3268 10.979C26.7052 10.979 26.1994 11.4848 26.1994 12.1064V36.0507C26.1994 36.6723 26.7052 37.178 27.3268 37.178C27.9484 37.178 28.4541 36.6723 28.4541 36.0507V27.1791ZM8.85061 20.2113V27.7892L10.597 28.0297V19.9706L8.85061 20.2113ZM5.18229 22.3192V25.6812C5.18229 26.5947 5.86477 27.3777 6.76968 27.5024L7.67663 27.6274V20.3731L6.76968 20.4981C5.86477 20.6227 5.18229 21.4057 5.18229 22.3192ZM16.5995 28.8569L18.8841 29.1717C19.0008 29.1878 19.1098 29.2385 19.1972 29.3175L22.3598 32.17C22.3658 30.6762 22.368 27.5079 22.3566 20.9517C22.356 20.6275 22.6183 20.3642 22.9426 20.3637H22.9436C23.2674 20.3637 23.53 20.6258 23.5306 20.9497C23.5367 24.389 23.5393 27.1876 23.5385 29.2676C23.5381 30.5728 23.5363 31.589 23.5331 32.2877C23.5315 32.6626 23.5293 32.961 23.5267 33.166L23.5259 33.2218L25.0254 34.5743V13.4264L23.5177 14.7864C23.5191 15.3331 23.5223 16.694 23.5259 18.4478C23.5266 18.772 23.2643 19.0353 22.9401 19.036H22.9389C22.6152 19.036 22.3526 18.7739 22.3519 18.4502C22.3498 17.4154 22.3478 16.5178 22.3462 15.843L19.1972 18.6832C19.1099 18.762 19.0008 18.8128 18.8842 18.8288L11.7711 19.8089V28.1916L16.5958 28.8564L16.5995 28.8569Z" fill="#0099FA"/>
<path d="M34.134 17.4199H40.885C42.5983 17.4199 43.992 18.8137 43.992 20.527V27.751C43.992 29.4643 42.5983 30.8581 40.885 30.8581H38.6409C38.3167 30.8581 38.0539 30.5953 38.0539 30.2711C38.0539 29.9469 38.3167 29.6841 38.6409 29.6841H40.885C41.9509 29.6841 42.818 28.8169 42.818 27.751V20.527C42.818 19.4611 41.9509 18.5939 40.885 18.5939H34.134C33.0681 18.5939 32.201 19.4611 32.201 20.527V22.0047C32.201 22.2096 32.094 22.3998 31.9189 22.5063L29.4624 24.0001L31.9189 25.4938C32.0941 25.6003 32.201 25.7904 32.201 25.9954V27.751C32.201 28.8169 33.0681 29.684 34.134 29.684H36.1393C36.4636 29.684 36.7263 29.9469 36.7263 30.271C36.7263 30.5952 36.4636 30.858 36.1393 30.858H34.134C32.4208 30.858 31.027 29.4642 31.027 27.751V26.3254L28.7298 24.9285C28.4029 24.7297 28.2078 24.3826 28.2078 24.0001C28.2078 23.6175 28.4029 23.2705 28.7298 23.0716L31.027 21.6747V20.527C31.027 18.8138 32.4207 17.4199 34.134 17.4199Z" fill="#0099FA"/>
<path fill-rule="evenodd" clip-rule="evenodd" d="M35.0059 32.376H40.0128C41.726 32.376 43.1199 33.7697 43.1198 35.4831V40.8929C43.1198 42.6062 41.726 44 40.0128 44H30.724C30.3314 44 29.976 43.7675 29.8187 43.4076C29.6616 43.0478 29.7323 42.629 29.999 42.3409L31.8989 40.289V35.4831C31.8989 33.7698 33.2926 32.376 35.0059 32.376ZM40.0129 42.826C41.0788 42.826 41.9459 41.9588 41.9459 40.8929L41.9458 35.483C41.9458 34.4171 41.0787 33.5499 40.0128 33.5499H35.0059C33.94 33.5499 33.0729 34.4171 33.0729 35.483V40.5189C33.0729 40.6668 33.0171 40.8092 32.9166 40.9178L31.1498 42.826H40.0129Z" fill="#0099FA"/>
</g>
</g>
</g>
</svg>
